{
  "asset": {
    "version": "2.0",
    "generator": "aether model_studio 0.1.0"
  },
  "scene": 0,
  "scenes": [
    {
      "name": "chicken",
      "nodes": [
        1,
        2
      ]
    }
  ],
  "nodes": [
    {
      "name": "head",
      "translation": [
        0.1,
        0.06,
        0.0
      ]
    },
    {
      "name": "body",
      "translation": [
        0.0,
        0.15,
        0.0
      ],
      "children": [
        0
      ]
    },
    {
      "name": "chicken_mesh",
      "mesh": 0,
      "skin": 0
    }
  ],
  "meshes": [
    {
      "name": "chicken_mesh_mesh",
      "primitives": [
        {
          "attributes": {
            "POSITION": 0,
            "NORMAL": 1,
            "TEXCOORD_0": 2,
            "JOINTS_0": 3,
            "WEIGHTS_0": 4
          },
          "indices": 5,
          "mode": 4,
          "material": 0
        }
      ]
    }
  ],
  "skins": [
    {
      "joints": [
        1,
        0
      ],
      "name": "chicken",
      "inverseBindMatrices": 6
    }
  ],
  "animations": [
    {
      "channels": [
        {
          "sampler": 0,
          "target": {
            "node": 0,
            "path": "rotation"
          }
        },
        {
          "sampler": 1,
          "target": {
            "node": 1,
            "path": "rotation"
          }
        }
      ],
      "samplers": [
        {
          "input": 7,
          "output": 8,
          "interpolation": "LINEAR"
        },
        {
          "input": 9,
          "output": 10,
          "interpolation": "LINEAR"
        }
      ],
      "name": "idle",
      "extras": {
        "loop": true
      }
    },
    {
      "channels": [
        {
          "sampler": 0,
          "target": {
            "node": 0,
            "path": "rotation"
          }
        },
        {
          "sampler": 1,
          "target": {
            "node": 1,
            "path": "rotation"
          }
        }
      ],
      "samplers": [
        {
          "input": 11,
          "output": 12,
          "interpolation": "LINEAR"
        },
        {
          "input": 13,
          "output": 14,
          "interpolation": "LINEAR"
        }
      ],
      "name": "peck",
      "extras": {
        "loop": true
      }
    }
  ],
  "materials": [
    {
      "name": "chicken_body",
      "pbrMetallicRoughness": {
        "baseColorFactor": [
          0.9,
          0.86,
          0.78,
          1.0
        ],
        "metallicFactor": 0.0,
        "roughnessFactor": 0.72
      },
      "doubleSided": true
    }
  ],
  "accessors": [
    {
      "bufferView": 0,
      "componentType": 5126,
      "count": 90,
      "type": "VEC3",
      "min": [
        -0.2,
        0.0,
        -0.078
      ],
      "max": [
        0.205,
        0.315,
        0.078
      ]
    },
    {
      "bufferView": 1,
      "componentType": 5126,
      "count": 90,
      "type": "VEC3"
    },
    {
      "bufferView": 2,
      "componentType": 5126,
      "count": 90,
      "type": "VEC2"
    },
    {
      "bufferView": 3,
      "componentType": 5123,
      "count": 90,
      "type": "VEC4"
    },
    {
      "bufferView": 4,
      "componentType": 5126,
      "count": 90,
      "type": "VEC4"
    },
    {
      "bufferView": 5,
      "componentType": 5121,
      "count": 450,
      "type": "SCALAR"
    },
    {
      "bufferView": 6,
      "componentType": 5126,
      "count": 2,
      "type": "MAT4"
    },
    {
      "bufferView": 7,
      "componentType": 5126,
      "count": 33,
      "type": "SCALAR",
      "min": [
        0.0
      ],
      "max": [
        3.2
      ]
    },
    {
      "bufferView": 8,
      "componentType": 5126,
      "count": 33,
      "type": "VEC4"
    },
    {
      "bufferView": 9,
      "componentType": 5126,
      "count": 33,
      "type": "SCALAR",
      "min": [
        0.0
      ],
      "max": [
        3.2
      ]
    },
    {
      "bufferView": 10,
      "componentType": 5126,
      "count": 33,
      "type": "VEC4"
    },
    {
      "bufferView": 11,
      "componentType": 5126,
      "count": 23,
      "type": "SCALAR",
      "min": [
        0.0
      ],
      "max": [
        1.1
      ]
    },
    {
      "bufferView": 12,
      "componentType": 5126,
      "count": 23,
      "type": "VEC4"
    },
    {
      "bufferView": 13,
      "componentType": 5126,
      "count": 23,
      "type": "SCALAR",
      "min": [
        0.0
      ],
      "max": [
        1.1
      ]
    },
    {
      "bufferView": 14,
      "componentType": 5126,
      "count": 23,
      "type": "VEC4"
    }
  ],
  "bufferViews": [
    {
      "buffer": 0,
      "byteOffset": 0,
      "byteLength": 1080,
      "target": 34962
    },
    {
      "buffer": 0,
      "byteOffset": 1080,
      "byteLength": 1080,
      "target": 34962
    },
    {
      "buffer": 0,
      "byteOffset": 2160,
      "byteLength": 720,
      "target": 34962
    },
    {
      "buffer": 0,
      "byteOffset": 2880,
      "byteLength": 720,
      "target": 34962
    },
    {
      "buffer": 0,
      "byteOffset": 3600,
      "byteLength": 1440,
      "target": 34962
    },
    {
      "buffer": 0,
      "byteOffset": 5040,
      "byteLength": 450,
      "target": 34963
    },
    {
      "buffer": 0,
      "byteOffset": 5492,
      "byteLength": 128
    },
    {
      "buffer": 0,
      "byteOffset": 5620,
      "byteLength": 132
    },
    {
      "buffer": 0,
      "byteOffset": 5752,
      "byteLength": 528
    },
    {
      "buffer": 0,
      "byteOffset": 6280,
      "byteLength": 132
    },
    {
      "buffer": 0,
      "byteOffset": 6412,
      "byteLength": 528
    },
    {
      "buffer": 0,
      "byteOffset": 6940,
      "byteLength": 92
    },
    {
      "buffer": 0,
      "byteOffset": 7032,
      "byteLength": 368
    },
    {
      "buffer": 0,
      "byteOffset": 7400,
      "byteLength": 92
    },
    {
      "buffer": 0,
      "byteOffset": 7492,
      "byteLength": 368
    }
  ],
  "buffers": [
    {
      "byteLength": 7860,
      "uri": "data:application/octet-stream;base64,"
    }
  ]
}
