{
  "asset": {
    "version": "2.0",
    "generator": "aether model_studio 0.1.0"
  },
  "scene": 0,
  "scenes": [
    {
      "name": "corn",
      "nodes": [
        0
      ]
    }
  ],
  "nodes": [
    {
      "name": "corn",
      "mesh": 0
    }
  ],
  "meshes": [
    {
      "name": "corn_mesh",
      "primitives": [
        {
          "attributes": {
            "POSITION": 0,
            "NORMAL": 1,
            "TEXCOORD_0": 2
          },
          "indices": 3,
          "mode": 4,
          "material": 0
        }
      ]
    }
  ],
  "materials": [
    {
      "name": "hf_corn",
      "pbrMetallicRoughness": {
        "baseColorFactor": [
          0.24,
          0.46,
          0.18,
          1.0
        ],
        "metallicFactor": 0.0,
        "roughnessFactor": 0.85
      }
    }
  ],
  "accessors": [
    {
      "bufferView": 0,
      "componentType": 5126,
      "count": 56,
      "type": "VEC3",
      "min": [
        -0.2822859631593812,
        0.0,
        -0.1520146402336702
      ],
      "max": [
        0.23599773489548992,
        0.8023612501095935,
        0.2086276553107376
      ]
    },
    {
      "bufferView": 1,
      "componentType": 5126,
      "count": 56,
      "type": "VEC3"
    },
    {
      "bufferView": 2,
      "componentType": 5126,
      "count": 56,
      "type": "VEC2"
    },
    {
      "bufferView": 3,
      "componentType": 5121,
      "count": 162,
      "type": "SCALAR"
    }
  ],
  "bufferViews": [
    {
      "buffer": 0,
      "byteOffset": 0,
      "byteLength": 672,
      "target": 34962
    },
    {
      "buffer": 0,
      "byteOffset": 672,
      "byteLength": 672,
      "target": 34962
    },
    {
      "buffer": 0,
      "byteOffset": 1344,
      "byteLength": 448,
      "target": 34962
    },
    {
      "buffer": 0,
      "byteOffset": 1792,
      "byteLength": 162,
      "target": 34963
    }
  ],
  "buffers": [
    {
      "byteLength": 1954,
      "uri": "data:application/octet-stream;base64,"
    }
  ]
}
