{
  "asset": {
    "version": "2.0",
    "generator": "aether model_studio 0.1.0"
  },
  "scene": 0,
  "scenes": [
    {
      "name": "field_fence",
      "nodes": [
        0
      ]
    }
  ],
  "nodes": [
    {
      "name": "field_fence",
      "mesh": 0
    }
  ],
  "meshes": [
    {
      "name": "field_fence_mesh",
      "primitives": [
        {
          "attributes": {
            "POSITION": 0,
            "NORMAL": 1,
            "TEXCOORD_0": 2,
            "TANGENT": 3
          },
          "indices": 4,
          "mode": 4,
          "material": 0
        }
      ]
    }
  ],
  "materials": [
    {
      "name": "hf_field_fence",
      "pbrMetallicRoughness": {
        "baseColorFactor": [
          0.46,
          0.34,
          0.22,
          1.0
        ],
        "metallicFactor": 0.0,
        "roughnessFactor": 0.85
      }
    }
  ],
  "accessors": [
    {
      "bufferView": 0,
      "componentType": 5126,
      "count": 1080,
      "type": "VEC3",
      "min": [
        -12.57,
        0.0,
        -12.57
      ],
      "max": [
        12.57,
        1.05,
        12.57
      ]
    },
    {
      "bufferView": 1,
      "componentType": 5126,
      "count": 1080,
      "type": "VEC3"
    },
    {
      "bufferView": 2,
      "componentType": 5126,
      "count": 1080,
      "type": "VEC2"
    },
    {
      "bufferView": 3,
      "componentType": 5126,
      "count": 1080,
      "type": "VEC4"
    },
    {
      "bufferView": 4,
      "componentType": 5123,
      "count": 1620,
      "type": "SCALAR"
    }
  ],
  "bufferViews": [
    {
      "buffer": 0,
      "byteOffset": 0,
      "byteLength": 12960,
      "target": 34962
    },
    {
      "buffer": 0,
      "byteOffset": 12960,
      "byteLength": 12960,
      "target": 34962
    },
    {
      "buffer": 0,
      "byteOffset": 25920,
      "byteLength": 8640,
      "target": 34962
    },
    {
      "buffer": 0,
      "byteOffset": 34560,
      "byteLength": 17280,
      "target": 34962
    },
    {
      "buffer": 0,
      "byteOffset": 51840,
      "byteLength": 3240,
      "target": 34963
    }
  ],
  "buffers": [
    {
      "byteLength": 55080,
      "uri": "data:application/octet-stream;base64,"
    }
  ]
}
