{
  "asset": {
    "version": "2.0",
    "generator": "aether model_studio 0.1.0"
  },
  "scene": 0,
  "scenes": [
    {
      "name": "island",
      "nodes": [
        0
      ]
    }
  ],
  "nodes": [
    {
      "name": "island",
      "mesh": 0
    }
  ],
  "meshes": [
    {
      "name": "island_mesh",
      "primitives": [
        {
          "attributes": {
            "POSITION": 0,
            "NORMAL": 1,
            "TEXCOORD_0": 2
          },
          "indices": 3,
          "mode": 4,
          "material": 0
        },
        {
          "attributes": {
            "POSITION": 4,
            "NORMAL": 5,
            "TEXCOORD_0": 6
          },
          "indices": 7,
          "mode": 4,
          "material": 1
        }
      ]
    }
  ],
  "materials": [
    {
      "name": "hf_island_grass",
      "pbrMetallicRoughness": {
        "baseColorFactor": [
          0.36,
          0.5,
          0.16,
          1.0
        ],
        "metallicFactor": 0.0,
        "roughnessFactor": 0.95
      }
    },
    {
      "name": "hf_island_rock",
      "pbrMetallicRoughness": {
        "baseColorFactor": [
          0.42,
          0.31,
          0.22,
          1.0
        ],
        "metallicFactor": 0.0,
        "roughnessFactor": 0.9
      }
    }
  ],
  "accessors": [
    {
      "bufferView": 0,
      "componentType": 5126,
      "count": 57,
      "type": "VEC3",
      "min": [
        -36.75610221077875,
        0.0,
        -36.24529913543593
      ],
      "max": [
        36.75843580089114,
        0.0,
        36.17476919857708
      ]
    },
    {
      "bufferView": 1,
      "componentType": 5126,
      "count": 57,
      "type": "VEC3"
    },
    {
      "bufferView": 2,
      "componentType": 5126,
      "count": 57,
      "type": "VEC2"
    },
    {
      "bufferView": 3,
      "componentType": 5121,
      "count": 168,
      "type": "SCALAR"
    },
    {
      "bufferView": 4,
      "componentType": 5126,
      "count": 281,
      "type": "VEC3",
      "min": [
        -37.49241438595165,
        -44.76,
        -36.934234850346634
      ],
      "max": [
        37.49241438595165,
        0.0,
        36.934234850346634
      ]
    },
    {
      "bufferView": 5,
      "componentType": 5126,
      "count": 281,
      "type": "VEC3"
    },
    {
      "bufferView": 6,
      "componentType": 5126,
      "count": 281,
      "type": "VEC2"
    },
    {
      "bufferView": 7,
      "componentType": 5123,
      "count": 1512,
      "type": "SCALAR"
    }
  ],
  "bufferViews": [
    {
      "buffer": 0,
      "byteOffset": 0,
      "byteLength": 684,
      "target": 34962
    },
    {
      "buffer": 0,
      "byteOffset": 684,
      "byteLength": 684,
      "target": 34962
    },
    {
      "buffer": 0,
      "byteOffset": 1368,
      "byteLength": 456,
      "target": 34962
    },
    {
      "buffer": 0,
      "byteOffset": 1824,
      "byteLength": 168,
      "target": 34963
    },
    {
      "buffer": 0,
      "byteOffset": 1992,
      "byteLength": 3372,
      "target": 34962
    },
    {
      "buffer": 0,
      "byteOffset": 5364,
      "byteLength": 3372,
      "target": 34962
    },
    {
      "buffer": 0,
      "byteOffset": 8736,
      "byteLength": 2248,
      "target": 34962
    },
    {
      "buffer": 0,
      "byteOffset": 10984,
      "byteLength": 3024,
      "target": 34963
    }
  ],
  "buffers": [
    {
      "byteLength": 14008,
      "uri": "data:application/octet-stream;base64,"
    }
  ]
}
