{
  "asset": {
    "version": "2.0",
    "generator": "aether model_studio 0.1.0"
  },
  "scene": 0,
  "scenes": [
    {
      "name": "mill",
      "nodes": [
        2
      ]
    }
  ],
  "nodes": [
    {
      "name": "mill_sails",
      "mesh": 0
    },
    {
      "name": "mill_sails_rake",
      "translation": [
        0.0,
        1.62,
        0.705
      ],
      "rotation": [
        -0.043619387365336,
        0.0,
        0.0,
        0.9990482215818578
      ],
      "children": [
        0
      ]
    },
    {
      "name": "mill",
      "mesh": 1,
      "children": [
        1
      ]
    }
  ],
  "meshes": [
    {
      "name": "mill_sails_mesh",
      "primitives": [
        {
          "attributes": {
            "POSITION": 0,
            "NORMAL": 1,
            "TEXCOORD_0": 2,
            "TANGENT": 3
          },
          "indices": 4,
          "mode": 4,
          "material": 2
        }
      ]
    },
    {
      "name": "mill_mesh",
      "primitives": [
        {
          "attributes": {
            "POSITION": 5,
            "NORMAL": 6,
            "TEXCOORD_0": 7,
            "TANGENT": 8
          },
          "indices": 9,
          "mode": 4,
          "material": 0
        },
        {
          "attributes": {
            "POSITION": 10,
            "NORMAL": 11,
            "TEXCOORD_0": 12,
            "TANGENT": 13
          },
          "indices": 14,
          "mode": 4,
          "material": 1
        },
        {
          "attributes": {
            "POSITION": 15,
            "NORMAL": 16,
            "TEXCOORD_0": 17,
            "TANGENT": 18
          },
          "indices": 19,
          "mode": 4,
          "material": 2
        }
      ]
    }
  ],
  "materials": [
    {
      "name": "hf_mill_stone",
      "pbrMetallicRoughness": {
        "baseColorFactor": [
          1.0,
          1.0,
          1.0,
          1.0
        ],
        "metallicFactor": 0.0,
        "roughnessFactor": 0.9,
        "baseColorTexture": {
          "index": 0
        }
      }
    },
    {
      "name": "hf_mill_roof",
      "pbrMetallicRoughness": {
        "baseColorFactor": [
          1.0,
          1.0,
          1.0,
          1.0
        ],
        "metallicFactor": 0.0,
        "roughnessFactor": 0.9,
        "baseColorTexture": {
          "index": 1
        }
      }
    },
    {
      "name": "hf_mill_timber",
      "pbrMetallicRoughness": {
        "baseColorFactor": [
          1.0,
          1.0,
          1.0,
          1.0
        ],
        "metallicFactor": 0.0,
        "roughnessFactor": 0.9,
        "baseColorTexture": {
          "index": 2
        }
      }
    }
  ],
  "textures": [
    {
      "source": 0,
      "sampler": 0
    },
    {
      "source": 1,
      "sampler": 0
    },
    {
      "source": 2,
      "sampler": 0
    }
  ],
  "images": [
    {
      "uri": "textures/mill_stone.png"
    },
    {
      "uri": "textures/mill_roof.png"
    },
    {
      "uri": "textures/mill_timber.png"
    }
  ],
  "samplers": [
    {
      "magFilter": 9729,
      "minFilter": 9987,
      "wrapS": 10497,
      "wrapT": 10497
    }
  ],
  "accessors": [
    {
      "bufferView": 0,
      "componentType": 5126,
      "count": 148,
      "type": "VEC3",
      "min": [
        -0.9500000000000001,
        -0.95,
        -0.13
      ],
      "max": [
        0.95,
        0.95,
        0.07137513558524133
      ]
    },
    {
      "bufferView": 1,
      "componentType": 5126,
      "count": 148,
      "type": "VEC3"
    },
    {
      "bufferView": 2,
      "componentType": 5126,
      "count": 148,
      "type": "VEC2"
    },
    {
      "bufferView": 3,
      "componentType": 5126,
      "count": 148,
      "type": "VEC4"
    },
    {
      "bufferView": 4,
      "componentType": 5121,
      "count": 276,
      "type": "SCALAR"
    },
    {
      "bufferView": 5,
      "componentType": 5126,
      "count": 186,
      "type": "VEC3",
      "min": [
        -0.64,
        0.0,
        -0.64
      ],
      "max": [
        0.64,
        2.9799999999999995,
        0.64
      ]
    },
    {
      "bufferView": 6,
      "componentType": 5126,
      "count": 186,
      "type": "VEC3"
    },
    {
      "bufferView": 7,
      "componentType": 5126,
      "count": 186,
      "type": "VEC2"
    },
    {
      "bufferView": 8,
      "componentType": 5126,
      "count": 186,
      "type": "VEC4"
    },
    {
      "bufferView": 9,
      "componentType": 5121,
      "count": 456,
      "type": "SCALAR"
    },
    {
      "bufferView": 10,
      "componentType": 5126,
      "count": 86,
      "type": "VEC3",
      "min": [
        -0.6,
        2.0,
        -0.6
      ],
      "max": [
        0.6,
        3.2,
        0.6
      ]
    },
    {
      "bufferView": 11,
      "componentType": 5126,
      "count": 86,
      "type": "VEC3"
    },
    {
      "bufferView": 12,
      "componentType": 5126,
      "count": 86,
      "type": "VEC2"
    },
    {
      "bufferView": 13,
      "componentType": 5126,
      "count": 86,
      "type": "VEC4"
    },
    {
      "bufferView": 14,
      "componentType": 5121,
      "count": 192,
      "type": "SCALAR"
    },
    {
      "bufferView": 15,
      "componentType": 5126,
      "count": 78,
      "type": "VEC3",
      "min": [
        -0.275,
        0.0,
        -0.6
      ],
      "max": [
        0.275,
        0.935,
        -0.5099999999999999
      ]
    },
    {
      "bufferView": 16,
      "componentType": 5126,
      "count": 78,
      "type": "VEC3"
    },
    {
      "bufferView": 17,
      "componentType": 5126,
      "count": 78,
      "type": "VEC2"
    },
    {
      "bufferView": 18,
      "componentType": 5126,
      "count": 78,
      "type": "VEC4"
    },
    {
      "bufferView": 19,
      "componentType": 5121,
      "count": 180,
      "type": "SCALAR"
    }
  ],
  "bufferViews": [
    {
      "buffer": 0,
      "byteOffset": 0,
      "byteLength": 1776,
      "target": 34962
    },
    {
      "buffer": 0,
      "byteOffset": 1776,
      "byteLength": 1776,
      "target": 34962
    },
    {
      "buffer": 0,
      "byteOffset": 3552,
      "byteLength": 1184,
      "target": 34962
    },
    {
      "buffer": 0,
      "byteOffset": 4736,
      "byteLength": 2368,
      "target": 34962
    },
    {
      "buffer": 0,
      "byteOffset": 7104,
      "byteLength": 276,
      "target": 34963
    },
    {
      "buffer": 0,
      "byteOffset": 7380,
      "byteLength": 2232,
      "target": 34962
    },
    {
      "buffer": 0,
      "byteOffset": 9612,
      "byteLength": 2232,
      "target": 34962
    },
    {
      "buffer": 0,
      "byteOffset": 11844,
      "byteLength": 1488,
      "target": 34962
    },
    {
      "buffer": 0,
      "byteOffset": 13332,
      "byteLength": 2976,
      "target": 34962
    },
    {
      "buffer": 0,
      "byteOffset": 16308,
      "byteLength": 456,
      "target": 34963
    },
    {
      "buffer": 0,
      "byteOffset": 16764,
      "byteLength": 1032,
      "target": 34962
    },
    {
      "buffer": 0,
      "byteOffset": 17796,
      "byteLength": 1032,
      "target": 34962
    },
    {
      "buffer": 0,
      "byteOffset": 18828,
      "byteLength": 688,
      "target": 34962
    },
    {
      "buffer": 0,
      "byteOffset": 19516,
      "byteLength": 1376,
      "target": 34962
    },
    {
      "buffer": 0,
      "byteOffset": 20892,
      "byteLength": 192,
      "target": 34963
    },
    {
      "buffer": 0,
      "byteOffset": 21084,
      "byteLength": 936,
      "target": 34962
    },
    {
      "buffer": 0,
      "byteOffset": 22020,
      "byteLength": 936,
      "target": 34962
    },
    {
      "buffer": 0,
      "byteOffset": 22956,
      "byteLength": 624,
      "target": 34962
    },
    {
      "buffer": 0,
      "byteOffset": 23580,
      "byteLength": 1248,
      "target": 34962
    },
    {
      "buffer": 0,
      "byteOffset": 24828,
      "byteLength": 180,
      "target": 34963
    }
  ],
  "buffers": [
    {
      "byteLength": 25008,
      "uri": "data:application/octet-stream;base64,"
    }
  ]
}
