{
  "asset": {
    "version": "2.0",
    "generator": "aether model_studio 0.1.0"
  },
  "scene": 0,
  "scenes": [
    {
      "name": "walker",
      "nodes": [
        6,
        7
      ]
    }
  ],
  "nodes": [
    {
      "name": "leg_r",
      "translation": [
        0.12,
        0.0,
        0.0
      ]
    },
    {
      "name": "leg_l",
      "translation": [
        -0.12,
        0.0,
        0.0
      ]
    },
    {
      "name": "arm_r",
      "translation": [
        0.26,
        0.5,
        0.0
      ]
    },
    {
      "name": "arm_l",
      "translation": [
        -0.26,
        0.5,
        0.0
      ]
    },
    {
      "name": "head",
      "translation": [
        0.0,
        0.5,
        0.0
      ]
    },
    {
      "name": "torso",
      "children": [
        4,
        3,
        2
      ]
    },
    {
      "name": "root",
      "translation": [
        0.0,
        0.95,
        0.0
      ],
      "children": [
        5,
        1,
        0
      ]
    },
    {
      "name": "walker_mesh",
      "mesh": 0,
      "skin": 0
    }
  ],
  "meshes": [
    {
      "name": "walker_mesh_mesh",
      "primitives": [
        {
          "attributes": {
            "POSITION": 0,
            "NORMAL": 1,
            "TEXCOORD_0": 2,
            "JOINTS_0": 3,
            "WEIGHTS_0": 4
          },
          "indices": 5,
          "mode": 4
        }
      ]
    }
  ],
  "skins": [
    {
      "joints": [
        6,
        5,
        4,
        3,
        2,
        1,
        0
      ],
      "name": "walker",
      "inverseBindMatrices": 6
    }
  ],
  "animations": [
    {
      "channels": [
        {
          "sampler": 0,
          "target": {
            "node": 5,
            "path": "rotation"
          }
        },
        {
          "sampler": 1,
          "target": {
            "node": 3,
            "path": "rotation"
          }
        },
        {
          "sampler": 2,
          "target": {
            "node": 2,
            "path": "rotation"
          }
        },
        {
          "sampler": 3,
          "target": {
            "node": 1,
            "path": "rotation"
          }
        },
        {
          "sampler": 4,
          "target": {
            "node": 0,
            "path": "rotation"
          }
        }
      ],
      "samplers": [
        {
          "input": 7,
          "output": 8,
          "interpolation": "LINEAR"
        },
        {
          "input": 9,
          "output": 10,
          "interpolation": "LINEAR"
        },
        {
          "input": 11,
          "output": 12,
          "interpolation": "LINEAR"
        },
        {
          "input": 13,
          "output": 14,
          "interpolation": "LINEAR"
        },
        {
          "input": 15,
          "output": 16,
          "interpolation": "LINEAR"
        }
      ],
      "name": "walk",
      "extras": {
        "loop": true
      }
    },
    {
      "channels": [
        {
          "sampler": 0,
          "target": {
            "node": 5,
            "path": "rotation"
          }
        },
        {
          "sampler": 1,
          "target": {
            "node": 4,
            "path": "rotation"
          }
        }
      ],
      "samplers": [
        {
          "input": 17,
          "output": 18,
          "interpolation": "LINEAR"
        },
        {
          "input": 19,
          "output": 20,
          "interpolation": "LINEAR"
        }
      ],
      "name": "idle",
      "extras": {
        "loop": true
      }
    },
    {
      "channels": [
        {
          "sampler": 0,
          "target": {
            "node": 3,
            "path": "rotation"
          }
        },
        {
          "sampler": 1,
          "target": {
            "node": 2,
            "path": "rotation"
          }
        },
        {
          "sampler": 2,
          "target": {
            "node": 1,
            "path": "rotation"
          }
        },
        {
          "sampler": 3,
          "target": {
            "node": 0,
            "path": "rotation"
          }
        }
      ],
      "samplers": [
        {
          "input": 21,
          "output": 22,
          "interpolation": "LINEAR"
        },
        {
          "input": 23,
          "output": 24,
          "interpolation": "LINEAR"
        },
        {
          "input": 25,
          "output": 26,
          "interpolation": "LINEAR"
        },
        {
          "input": 27,
          "output": 28,
          "interpolation": "LINEAR"
        }
      ],
      "name": "jump",
      "extras": {
        "loop": false
      }
    }
  ],
  "accessors": [
    {
      "bufferView": 0,
      "componentType": 5126,
      "count": 144,
      "type": "VEC3",
      "min": [
        -0.32,
        0.0,
        -0.12
      ],
      "max": [
        0.32,
        1.7300000000000002,
        0.12
      ]
    },
    {
      "bufferView": 1,
      "componentType": 5126,
      "count": 144,
      "type": "VEC3"
    },
    {
      "bufferView": 2,
      "componentType": 5126,
      "count": 144,
      "type": "VEC2"
    },
    {
      "bufferView": 3,
      "componentType": 5123,
      "count": 144,
      "type": "VEC4"
    },
    {
      "bufferView": 4,
      "componentType": 5126,
      "count": 144,
      "type": "VEC4"
    },
    {
      "bufferView": 5,
      "componentType": 5121,
      "count": 216,
      "type": "SCALAR"
    },
    {
      "bufferView": 6,
      "componentType": 5126,
      "count": 7,
      "type": "MAT4"
    },
    {
      "bufferView": 7,
      "componentType": 5126,
      "count": 21,
      "type": "SCALAR",
      "min": [
        0.0
      ],
      "max": [
        1.0
      ]
    },
    {
      "bufferView": 8,
      "componentType": 5126,
      "count": 21,
      "type": "VEC4"
    },
    {
      "bufferView": 9,
      "componentType": 5126,
      "count": 21,
      "type": "SCALAR",
      "min": [
        0.0
      ],
      "max": [
        1.0
      ]
    },
    {
      "bufferView": 10,
      "componentType": 5126,
      "count": 21,
      "type": "VEC4"
    },
    {
      "bufferView": 11,
      "componentType": 5126,
      "count": 21,
      "type": "SCALAR",
      "min": [
        0.0
      ],
      "max": [
        1.0
      ]
    },
    {
      "bufferView": 12,
      "componentType": 5126,
      "count": 21,
      "type": "VEC4"
    },
    {
      "bufferView": 13,
      "componentType": 5126,
      "count": 21,
      "type": "SCALAR",
      "min": [
        0.0
      ],
      "max": [
        1.0
      ]
    },
    {
      "bufferView": 14,
      "componentType": 5126,
      "count": 21,
      "type": "VEC4"
    },
    {
      "bufferView": 15,
      "componentType": 5126,
      "count": 21,
      "type": "SCALAR",
      "min": [
        0.0
      ],
      "max": [
        1.0
      ]
    },
    {
      "bufferView": 16,
      "componentType": 5126,
      "count": 21,
      "type": "VEC4"
    },
    {
      "bufferView": 17,
      "componentType": 5126,
      "count": 13,
      "type": "SCALAR",
      "min": [
        0.0
      ],
      "max": [
        3.0
      ]
    },
    {
      "bufferView": 18,
      "componentType": 5126,
      "count": 13,
      "type": "VEC4"
    },
    {
      "bufferView": 19,
      "componentType": 5126,
      "count": 13,
      "type": "SCALAR",
      "min": [
        0.0
      ],
      "max": [
        3.0
      ]
    },
    {
      "bufferView": 20,
      "componentType": 5126,
      "count": 13,
      "type": "VEC4"
    },
    {
      "bufferView": 21,
      "componentType": 5126,
      "count": 2,
      "type": "SCALAR",
      "min": [
        0.0
      ],
      "max": [
        0.4
      ]
    },
    {
      "bufferView": 22,
      "componentType": 5126,
      "count": 2,
      "type": "VEC4"
    },
    {
      "bufferView": 23,
      "componentType": 5126,
      "count": 2,
      "type": "SCALAR",
      "min": [
        0.0
      ],
      "max": [
        0.4
      ]
    },
    {
      "bufferView": 24,
      "componentType": 5126,
      "count": 2,
      "type": "VEC4"
    },
    {
      "bufferView": 25,
      "componentType": 5126,
      "count": 2,
      "type": "SCALAR",
      "min": [
        0.0
      ],
      "max": [
        0.4
      ]
    },
    {
      "bufferView": 26,
      "componentType": 5126,
      "count": 2,
      "type": "VEC4"
    },
    {
      "bufferView": 27,
      "componentType": 5126,
      "count": 2,
      "type": "SCALAR",
      "min": [
        0.0
      ],
      "max": [
        0.4
      ]
    },
    {
      "bufferView": 28,
      "componentType": 5126,
      "count": 2,
      "type": "VEC4"
    }
  ],
  "bufferViews": [
    {
      "buffer": 0,
      "byteOffset": 0,
      "byteLength": 1728,
      "target": 34962
    },
    {
      "buffer": 0,
      "byteOffset": 1728,
      "byteLength": 1728,
      "target": 34962
    },
    {
      "buffer": 0,
      "byteOffset": 3456,
      "byteLength": 1152,
      "target": 34962
    },
    {
      "buffer": 0,
      "byteOffset": 4608,
      "byteLength": 1152,
      "target": 34962
    },
    {
      "buffer": 0,
      "byteOffset": 5760,
      "byteLength": 2304,
      "target": 34962
    },
    {
      "buffer": 0,
      "byteOffset": 8064,
      "byteLength": 216,
      "target": 34963
    },
    {
      "buffer": 0,
      "byteOffset": 8280,
      "byteLength": 448
    },
    {
      "buffer": 0,
      "byteOffset": 8728,
      "byteLength": 84
    },
    {
      "buffer": 0,
      "byteOffset": 8812,
      "byteLength": 336
    },
    {
      "buffer": 0,
      "byteOffset": 9148,
      "byteLength": 84
    },
    {
      "buffer": 0,
      "byteOffset": 9232,
      "byteLength": 336
    },
    {
      "buffer": 0,
      "byteOffset": 9568,
      "byteLength": 84
    },
    {
      "buffer": 0,
      "byteOffset": 9652,
      "byteLength": 336
    },
    {
      "buffer": 0,
      "byteOffset": 9988,
      "byteLength": 84
    },
    {
      "buffer": 0,
      "byteOffset": 10072,
      "byteLength": 336
    },
    {
      "buffer": 0,
      "byteOffset": 10408,
      "byteLength": 84
    },
    {
      "buffer": 0,
      "byteOffset": 10492,
      "byteLength": 336
    },
    {
      "buffer": 0,
      "byteOffset": 10828,
      "byteLength": 52
    },
    {
      "buffer": 0,
      "byteOffset": 10880,
      "byteLength": 208
    },
    {
      "buffer": 0,
      "byteOffset": 11088,
      "byteLength": 52
    },
    {
      "buffer": 0,
      "byteOffset": 11140,
      "byteLength": 208
    },
    {
      "buffer": 0,
      "byteOffset": 11348,
      "byteLength": 8
    },
    {
      "buffer": 0,
      "byteOffset": 11356,
      "byteLength": 32
    },
    {
      "buffer": 0,
      "byteOffset": 11388,
      "byteLength": 8
    },
    {
      "buffer": 0,
      "byteOffset": 11396,
      "byteLength": 32
    },
    {
      "buffer": 0,
      "byteOffset": 11428,
      "byteLength": 8
    },
    {
      "buffer": 0,
      "byteOffset": 11436,
      "byteLength": 32
    },
    {
      "buffer": 0,
      "byteOffset": 11468,
      "byteLength": 8
    },
    {
      "buffer": 0,
      "byteOffset": 11476,
      "byteLength": 32
    }
  ],
  "buffers": [
    {
      "byteLength": 11508,
      "uri": "data:application/octet-stream;base64,"
    }
  ]
}
