{
  "asset": {
    "version": "2.0",
    "generator": "aether model_studio 0.1.0"
  },
  "scene": 0,
  "scenes": [
    {
      "name": "fish",
      "nodes": [
        2,
        3
      ]
    }
  ],
  "nodes": [
    {
      "name": "spine_tail",
      "translation": [
        -0.3,
        0.0,
        0.0
      ]
    },
    {
      "name": "spine_mid",
      "translation": [
        -0.2,
        0.0,
        0.0
      ],
      "children": [
        0
      ]
    },
    {
      "name": "spine_head",
      "translation": [
        0.15,
        0.0,
        0.0
      ],
      "children": [
        1
      ]
    },
    {
      "name": "fish_mesh",
      "mesh": 0,
      "skin": 0
    }
  ],
  "meshes": [
    {
      "name": "fish_mesh_mesh",
      "primitives": [
        {
          "attributes": {
            "POSITION": 0,
            "NORMAL": 1,
            "TEXCOORD_0": 2,
            "JOINTS_0": 3,
            "WEIGHTS_0": 4
          },
          "indices": 5,
          "mode": 4,
          "material": 0
        }
      ]
    }
  ],
  "skins": [
    {
      "joints": [
        2,
        1,
        0
      ],
      "name": "fish",
      "inverseBindMatrices": 6
    }
  ],
  "animations": [
    {
      "channels": [
        {
          "sampler": 0,
          "target": {
            "node": 2,
            "path": "rotation"
          }
        },
        {
          "sampler": 1,
          "target": {
            "node": 1,
            "path": "rotation"
          }
        },
        {
          "sampler": 2,
          "target": {
            "node": 0,
            "path": "rotation"
          }
        }
      ],
      "samplers": [
        {
          "input": 7,
          "output": 8,
          "interpolation": "LINEAR"
        },
        {
          "input": 9,
          "output": 10,
          "interpolation": "LINEAR"
        },
        {
          "input": 11,
          "output": 12,
          "interpolation": "LINEAR"
        }
      ],
      "name": "swim",
      "extras": {
        "loop": true
      }
    }
  ],
  "materials": [
    {
      "name": "fish_body",
      "pbrMetallicRoughness": {
        "baseColorFactor": [
          0.56,
          0.62,
          0.68,
          1.0
        ],
        "metallicFactor": 0.05,
        "roughnessFactor": 0.45
      },
      "doubleSided": true
    }
  ],
  "accessors": [
    {
      "bufferView": 0,
      "componentType": 5126,
      "count": 39,
      "type": "VEC3",
      "min": [
        -0.52,
        -0.13,
        -0.055
      ],
      "max": [
        0.5,
        0.17,
        0.055
      ]
    },
    {
      "bufferView": 1,
      "componentType": 5126,
      "count": 39,
      "type": "VEC3"
    },
    {
      "bufferView": 2,
      "componentType": 5126,
      "count": 39,
      "type": "VEC2"
    },
    {
      "bufferView": 3,
      "componentType": 5123,
      "count": 39,
      "type": "VEC4"
    },
    {
      "bufferView": 4,
      "componentType": 5126,
      "count": 39,
      "type": "VEC4"
    },
    {
      "bufferView": 5,
      "componentType": 5121,
      "count": 189,
      "type": "SCALAR"
    },
    {
      "bufferView": 6,
      "componentType": 5126,
      "count": 3,
      "type": "MAT4"
    },
    {
      "bufferView": 7,
      "componentType": 5126,
      "count": 25,
      "type": "SCALAR",
      "min": [
        0.0
      ],
      "max": [
        0.9
      ]
    },
    {
      "bufferView": 8,
      "componentType": 5126,
      "count": 25,
      "type": "VEC4"
    },
    {
      "bufferView": 9,
      "componentType": 5126,
      "count": 25,
      "type": "SCALAR",
      "min": [
        0.0
      ],
      "max": [
        0.9
      ]
    },
    {
      "bufferView": 10,
      "componentType": 5126,
      "count": 25,
      "type": "VEC4"
    },
    {
      "bufferView": 11,
      "componentType": 5126,
      "count": 25,
      "type": "SCALAR",
      "min": [
        0.0
      ],
      "max": [
        0.9
      ]
    },
    {
      "bufferView": 12,
      "componentType": 5126,
      "count": 25,
      "type": "VEC4"
    }
  ],
  "bufferViews": [
    {
      "buffer": 0,
      "byteOffset": 0,
      "byteLength": 468,
      "target": 34962
    },
    {
      "buffer": 0,
      "byteOffset": 468,
      "byteLength": 468,
      "target": 34962
    },
    {
      "buffer": 0,
      "byteOffset": 936,
      "byteLength": 312,
      "target": 34962
    },
    {
      "buffer": 0,
      "byteOffset": 1248,
      "byteLength": 312,
      "target": 34962
    },
    {
      "buffer": 0,
      "byteOffset": 1560,
      "byteLength": 624,
      "target": 34962
    },
    {
      "buffer": 0,
      "byteOffset": 2184,
      "byteLength": 189,
      "target": 34963
    },
    {
      "buffer": 0,
      "byteOffset": 2376,
      "byteLength": 192
    },
    {
      "buffer": 0,
      "byteOffset": 2568,
      "byteLength": 100
    },
    {
      "buffer": 0,
      "byteOffset": 2668,
      "byteLength": 400
    },
    {
      "buffer": 0,
      "byteOffset": 3068,
      "byteLength": 100
    },
    {
      "buffer": 0,
      "byteOffset": 3168,
      "byteLength": 400
    },
    {
      "buffer": 0,
      "byteOffset": 3568,
      "byteLength": 100
    },
    {
      "buffer": 0,
      "byteOffset": 3668,
      "byteLength": 400
    }
  ],
  "buffers": [
    {
      "byteLength": 4068,
      "uri": "data:application/octet-stream;base64,"
    }
  ]
}
